<svg xmlns="http://www.w3.org/2000/svg" viewBox="0 0 64 64" role="img" aria-label="BidCapture AI">
  <rect width="64" height="64" rx="10" fill="#ffffff"/>
  <rect x="1" y="1" width="62" height="62" rx="9" fill="none" stroke="#dfe5ec" stroke-width="2"/>
  <path d="M18 18h18c6 0 10 3.5 10 9 0 3.1-1.4 5.5-4 7 3.1 1.4 4.8 4.1 4.8 7.9 0 6-4.5 10.1-11.2 10.1H18V18Zm9.2 13h7.3c2.1 0 3.3-1.1 3.3-3s-1.2-3-3.3-3h-7.3v6Zm0 14h8.1c2.3 0 3.6-1.2 3.6-3.4 0-2.1-1.3-3.3-3.6-3.3h-8.1V45Z" fill="#0f766e"/>
</svg>
